HIERARCHY
ROOT Hips
{
    OFFSET   0.000000   0.000000   0.000000
    CHANNELS 6 Xposition Yposition Zposition Zrotation Xrotation Yrotation
    JOINT Chest
    {
        OFFSET   0.000000   8.007230   0.000000
        CHANNELS 3 Zrotation Xrotation Yrotation
        JOINT Chest2
        {
            OFFSET   0.000000  22.077100   0.000000
            CHANNELS 3 Zrotation Xrotation Yrotation
            JOINT Neck
            {
                OFFSET   0.000000  23.255100   0.000000
                CHANNELS 3 Zrotation Xrotation Yrotation
                JOINT Head
                {
                    OFFSET   0.000000  14.370100   1.956600
                    CHANNELS 3 Zrotation Xrotation Yrotation
                    End Site
                    {
                        OFFSET   0.000000  19.566000   0.000000
                    }
                }
            }
            JOINT LeftCollar
            {
                OFFSET   3.911900  19.017000  -0.467063
                CHANNELS 3 Zrotation Xrotation Yrotation
                JOINT LeftShoulder
                {
                    OFFSET  10.383700   0.000000   0.000000
                    CHANNELS 3 Zrotation Xrotation Yrotation
                    JOINT LeftElbow
                    {
                        OFFSET  26.662100   0.001193   0.000980
                        CHANNELS 3 Zrotation Xrotation Yrotation
                        JOINT LeftWrist
                        {
                            OFFSET  28.869000  -0.000059  -0.000082
                            CHANNELS 3 Zrotation Xrotation Yrotation
                            JOINT LeftFinger0
                            {
                                OFFSET   2.044650  -2.323450   3.252850
                                CHANNELS 3 Zrotation Xrotation Yrotation
                                JOINT LeftFinger01
                                {
                                    OFFSET   3.088130   0.000000   0.000000
                                    CHANNELS 3 Zrotation Xrotation Yrotation
                                    JOINT LeftFinger02
                                    {
                                        OFFSET   2.639460   0.000000   0.000000
                                        CHANNELS 3 Zrotation Xrotation Yrotation
                                        End Site
                                        {
                                            OFFSET   2.582190   0.000000   0.000000
                                        }
                                    }
                                }
                            }
                            JOINT LeftFinger1
                            {
                                OFFSET   8.364480   0.000000   3.252850
                                CHANNELS 3 Zrotation Xrotation Yrotation
                                JOINT LeftFinger11
                                {
                                    OFFSET   4.646930   0.000000   0.000000
                                    CHANNELS 3 Zrotation Xrotation Yrotation
                                    JOINT LeftFinger12
                                    {
                                        OFFSET   2.323470   0.000000   0.000000
                                        CHANNELS 3 Zrotation Xrotation Yrotation
                                        End Site
                                        {
                                            OFFSET   2.273050   0.000000   0.000000
                                        }
                                    }
                                }
                            }
                            JOINT LeftFinger2
                            {
                                OFFSET   8.364490   0.000016   1.078090
                                CHANNELS 3 Zrotation Xrotation Yrotation
                                JOINT LeftFinger21
                                {
                                    OFFSET   5.111610   0.000000   0.000000
                                    CHANNELS 3 Zrotation Xrotation Yrotation
                                    JOINT LeftFinger22
                                    {
                                        OFFSET   2.788150   0.000016   0.000000
                                        CHANNELS 3 Zrotation Xrotation Yrotation
                                        End Site
                                        {
                                            OFFSET   2.727660   0.000000   0.000000
                                        }
                                    }
                                }
                            }
                            JOINT LeftFinger3
                            {
                                OFFSET   7.899780   0.000015  -1.078090
                                CHANNELS 3 Zrotation Xrotation Yrotation
                                JOINT LeftFinger31
                                {
                                    OFFSET   4.646930   0.000000   0.000000
                                    CHANNELS 3 Zrotation Xrotation Yrotation
                                    JOINT LeftFinger32
                                    {
                                        OFFSET   2.323470   0.000000   0.000000
                                        CHANNELS 3 Zrotation Xrotation Yrotation
                                        End Site
                                        {
                                            OFFSET   2.273050   0.000000   0.000000
                                        }
                                    }
                                }
                            }
                            JOINT LeftFinger4
                            {
                                OFFSET   7.435090   0.000000  -3.252850
                                CHANNELS 3 Zrotation Xrotation Yrotation
                                JOINT LeftFinger41
                                {
                                    OFFSET   3.717550   0.000000   0.000000
                                    CHANNELS 3 Zrotation Xrotation Yrotation
                                    JOINT LeftFinger42
                                    {
                                        OFFSET   1.858770   0.000000   0.000000
                                        CHANNELS 3 Zrotation Xrotation Yrotation
                                        End Site
                                        {
                                            OFFSET   1.818440   0.000000   0.000000
                                        }
                                    }
                                }
                            }
                        }
                    }
                }
            }
            JOINT RightCollar
            {
                OFFSET  -3.911910  19.017000  -0.467062
                CHANNELS 3 Zrotation Xrotation Yrotation
                JOINT RightShoulder
                {
                    OFFSET -10.383700   0.000014   0.000000
                    CHANNELS 3 Zrotation Xrotation Yrotation
                    JOINT RightElbow
                    {
                        OFFSET -26.662100   0.001225   0.001091
                        CHANNELS 3 Zrotation Xrotation Yrotation
                        JOINT RightWrist
                        {
                            OFFSET -28.869000  -0.000020  -0.000085
                            CHANNELS 3 Zrotation Xrotation Yrotation
                            JOINT RightFinger0
                            {
                                OFFSET  -2.044650  -2.323490   3.252850
                                CHANNELS 3 Zrotation Xrotation Yrotation
                                JOINT RightFinger01
                                {
                                    OFFSET  -3.088130   0.000000   0.000000
                                    CHANNELS 3 Zrotation Xrotation Yrotation
                                    JOINT RightFinger02
                                    {
                                        OFFSET  -2.639460   0.000000   0.000000
                                        CHANNELS 3 Zrotation Xrotation Yrotation
                                        End Site
                                        {
                                            OFFSET  -2.582190   0.000000   0.000000
                                        }
                                    }
                                }
                            }
                            JOINT RightFinger1
                            {
                                OFFSET  -8.364480   0.000000   3.252850
                                CHANNELS 3 Zrotation Xrotation Yrotation
                                JOINT RightFinger11
                                {
                                    OFFSET  -4.646930   0.000000   0.000000
                                    CHANNELS 3 Zrotation Xrotation Yrotation
                                    JOINT RightFinger12
                                    {
                                        OFFSET  -2.323470   0.000000   0.000000
                                        CHANNELS 3 Zrotation Xrotation Yrotation
                                        End Site
                                        {
                                            OFFSET  -2.273050   0.000000   0.000000
                                        }
                                    }
                                }
                            }
                            JOINT RightFinger2
                            {
                                OFFSET  -8.364480   0.000000   1.078090
                                CHANNELS 3 Zrotation Xrotation Yrotation
                                JOINT RightFinger21
                                {
                                    OFFSET  -5.111620   0.000000   0.000000
                                    CHANNELS 3 Zrotation Xrotation Yrotation
                                    JOINT RightFinger22
                                    {
                                        OFFSET  -2.788160   0.000000   0.000000
                                        CHANNELS 3 Zrotation Xrotation Yrotation
                                        End Site
                                        {
                                            OFFSET  -2.727660   0.000000   0.000000
                                        }
                                    }
                                }
                            }
                            JOINT RightFinger3
                            {
                                OFFSET  -7.899780   0.000000  -1.078090
                                CHANNELS 3 Zrotation Xrotation Yrotation
                                JOINT RightFinger31
                                {
                                    OFFSET  -4.646930   0.000000   0.000000
                                    CHANNELS 3 Zrotation Xrotation Yrotation
                                    JOINT RightFinger32
                                    {
                                        OFFSET  -2.323470   0.000000   0.000000
                                        CHANNELS 3 Zrotation Xrotation Yrotation
                                        End Site
                                        {
                                            OFFSET  -2.273050   0.000000   0.000000
                                        }
                                    }
                                }
                            }
                            JOINT RightFinger4
                            {
                                OFFSET  -7.435090   0.000000  -3.252850
                                CHANNELS 3 Zrotation Xrotation Yrotation
                                JOINT RightFinger41
                                {
                                    OFFSET  -3.717550   0.000000   0.000000
                                    CHANNELS 3 Zrotation Xrotation Yrotation
                                    JOINT RightFinger42
                                    {
                                        OFFSET  -1.858760   0.000000   0.000000
                                        CHANNELS 3 Zrotation Xrotation Yrotation
                                        End Site
                                        {
                                            OFFSET  -1.818440   0.000000   0.000000
                                        }
                                    }
                                }
                            }
                        }
                    }
                }
            }
        }
    }
    JOINT LeftHip
    {
        OFFSET   9.783030   0.000000   0.000000
        CHANNELS 3 Zrotation Xrotation Yrotation
        JOINT LeftKnee
        {
            OFFSET   0.000063 -41.789100   0.000608
            CHANNELS 3 Zrotation Xrotation Yrotation
            JOINT LeftAnkle
            {
                OFFSET   0.000048 -41.133200  -0.000184
                CHANNELS 3 Zrotation Xrotation Yrotation
                JOINT LeftToe
                {
                    OFFSET   0.000000  -6.358960  14.674500
                    CHANNELS 3 Zrotation Xrotation Yrotation
                    End Site
                    {
                        OFFSET   0.000000   0.000000   3.913200
                    }
                }
            }
        }
    }
    JOINT RightHip
    {
        OFFSET  -9.783030   0.000000   0.000000
        CHANNELS 3 Zrotation Xrotation Yrotation
        JOINT RightKnee
        {
            OFFSET   0.000071 -41.789100   0.001239
            CHANNELS 3 Zrotation Xrotation Yrotation
            JOINT RightAnkle
            {
                OFFSET   0.000037 -41.133200  -0.000166
                CHANNELS 3 Zrotation Xrotation Yrotation
                JOINT RightToe
                {
                    OFFSET   0.000000  -6.358960  14.674500
                    CHANNELS 3 Zrotation Xrotation Yrotation
                    End Site
                    {
                        OFFSET   0.000000   0.000000   3.913200
                    }
                }
            }
        }
    }
}
MOTION
Frames: 4
Frame Time:   0.016667
  0.659413  89.585000  -1.756250  -2.825290  -8.279460  -3.493890   0.688924   5.557900   0.483197   1.340010  11.121100   0.905302   1.473860  -0.126097   0.001017   2.421350  -0.255064   4.666250  -6.181000  -0.598896   2.300500 -70.689600  20.853900  -3.627060  -2.520570  -5.423220 -17.249100  16.634600  -9.601530   7.565310  36.300000  27.882800 -51.420600 -34.234900  -0.005294  -0.003521 -12.117400   0.002409  -0.036602 -33.731500   6.522820  -9.655360 -28.049800   0.017071  -0.002337 -19.645000   0.012000   0.001390 -28.673400  -2.211090   4.034580 -40.434900   0.032545   0.007773 -26.929600   0.017742   0.013550 -28.719300  -2.214100   4.032930 -42.781800   0.016078   0.001438 -28.492700   0.009862   0.004312 -33.050600  -2.512460   3.854320 -49.702600   0.011369   0.006028 -33.102000   0.004483   0.004978  11.138400   0.446380   7.267470  64.134100  23.346000  -4.563840  -3.070150  -2.073070  17.441800 -12.838600 -14.416600   0.033139 -39.412400  27.127700  54.988600  27.260300   0.004326  -0.007046   8.630090   0.013651   0.007005  30.388200   9.086060  15.071700  25.848600  -0.004574   0.011811  18.094000  -0.001589   0.001508  28.564300   3.678290   6.720270  41.433100  -0.003905   0.005668  27.594400   0.004586   0.003626  28.278500   3.175480   5.879200  35.521000  -0.001764   0.005392  23.656900   0.000964   0.005162  36.438700  -0.120089  -0.162390  54.658300   0.001675   0.001574  36.402400   0.002948   0.005008   2.372080  10.825400   4.558340   0.951593   0.314236   6.781560  -1.374130  -3.710470   1.950440   0.000000   0.000000   0.000000   1.249420   9.455730  -0.838624  -0.235223   0.729279  -6.921790  -0.306918  -2.631400  -0.835942  -0.000000   0.000000  -0.000000
  0.659640  89.584700  -1.746460  -2.824480  -8.271640  -3.491970   0.689075   5.542320   0.492185   1.339740  11.090000   0.923534   1.489100  -0.126255   0.001021   2.446520  -0.255289   4.644380  -6.181490  -0.584350   2.284960 -70.720600  20.798300  -3.613510  -2.508120  -5.410140 -17.232100  16.633700  -9.603370   7.558900  36.302800  27.882400 -51.420300 -34.224200  -0.005313  -0.003529 -12.112100   0.002412  -0.041454 -33.736500   6.535120  -9.670640 -28.055600   0.025965  -0.013080 -19.645000   0.020045  -0.004783 -28.674700  -2.202070   4.018020 -40.445300   0.055431  -0.006215 -26.937000   0.036135   0.009474 -28.720600  -2.205040   4.016390 -42.793700   0.027364  -0.007931 -28.500600   0.018346   0.000195 -33.056500  -2.502600   3.838240 -49.710500   0.026627   0.001033 -33.107200   0.015027   0.005219  11.146000   0.434068   7.244350  64.156200  23.300600  -4.589250  -3.063920  -2.066170  17.401900 -12.827800 -14.390300  -0.008501 -39.386200  27.104600  55.043800  27.274600   0.004323  -0.007052   8.637240   0.013652   0.007005  30.394900   9.092450  15.077800  25.856000  -0.004572   0.011815  18.099200  -0.001595   0.001493  28.563800   3.680120   6.723580  41.441500  -0.003900   0.005660  27.600000   0.004579   0.003629  28.278700   3.175520   5.879300  35.516800  -0.001761   0.005384  23.654100   0.000960   0.005156  36.447900  -0.120121  -0.162427  54.672100   0.001668   0.001559  36.411500   0.002933   0.004998   2.369370  10.839000   4.565140   0.951664   0.285605   6.781760  -1.383260  -3.696710   1.940240   0.000000   0.000000   0.000000   1.249210   9.453180  -0.838627  -0.232870   0.735355  -6.922560  -0.307048  -2.637370  -0.836943  -0.000000   0.000000   0.000000
  0.659867  89.584100  -1.729960  -2.822740  -8.260850  -3.484940   0.688772   5.519060   0.506641   1.337610  11.043700   0.952915   1.518670  -0.126487   0.001038   2.495230  -0.255665   4.607850  -6.182050  -0.569806   2.262040 -70.768600  20.713600  -3.592390  -2.486520  -5.387440 -17.214800  16.632900  -9.608400   7.549960  36.305700  27.882000 -51.419900 -34.209500  -0.005332  -0.003538 -12.104800   0.002416  -0.046307 -33.745400   6.547410  -9.685910 -28.064300   0.034860  -0.028805 -19.645000   0.028090  -0.014291 -28.676000  -2.193050   4.001460 -40.457000   0.078318  -0.026557 -26.944300   0.054529   0.001885 -28.721900  -2.195990   3.999840 -42.812400   0.039319  -0.022289 -28.513100   0.029221  -0.006714 -33.064400  -2.492730   3.822150 -49.721400   0.048319  -0.007632 -33.114400   0.030556   0.005461  11.165500   0.395885   7.221200  64.187600  23.234900  -4.641590  -3.051620  -2.050470  17.341900 -12.795400 -14.334100  -0.069424 -39.352800  27.079400  55.138200  27.288900   0.004320  -0.007062   8.644380   0.013657   0.007005  30.401700   9.105660  15.094600  25.863300  -0.004565   0.011823  18.104300  -0.001607   0.001448  28.561400   3.689210   6.740240  41.454200  -0.003890   0.005643  27.608500   0.004561   0.003632  28.278800   3.175780   5.880040  35.508700  -0.001759   0.005360  23.648700   0.000952   0.005141  36.462500  -0.120154  -0.162463  54.694000   0.001653   0.001522  36.426100   0.002895   0.004972   2.365540  10.858300   4.575460   0.951485   0.256973   6.781960  -1.397580  -3.682970   1.922830   0.000000   0.000000   0.000000   1.248990   9.450630  -0.838630  -0.228124   0.742457  -6.927450  -0.307359  -2.648820  -0.840323   0.000000   0.000000  -0.000000
  0.658601  89.583700  -1.716400  -2.821710  -8.256720  -3.470470   0.686981   5.505930   0.517072   1.332820  11.017500   0.974245   1.550350  -0.126624   0.001072   2.547190  -0.256040   4.577480  -6.183260  -0.571468   2.249220 -70.800000  20.659400  -3.577660  -2.466590  -5.365330 -17.218800  16.637900  -9.617240   7.546230  36.312400  27.890800 -51.425700 -34.205100  -0.005325  -0.003537 -12.102600   0.002407  -0.037350 -33.751100   6.547400  -9.684890 -28.068700   0.033169  -0.037994 -19.647100   0.027664  -0.020589 -28.675700  -2.195990   4.003310 -40.458300   0.073437  -0.037982 -26.944000   0.053498  -0.008093 -28.721700  -2.198940   4.001690 -42.824100   0.040099  -0.032875 -28.520900   0.032010  -0.013770 -33.066400  -2.496210   3.823870 -49.724700   0.058798  -0.017314 -33.116600   0.039958   0.005400  11.199300   0.324686   7.227410  64.192100  23.200100  -4.713390  -3.039330  -2.031660  17.311300 -12.734300 -14.266100  -0.100261 -39.350300  27.087500  55.223600  27.283900   0.004323  -0.007074   8.641890   0.013678   0.007013  30.395500   9.126550  15.131000  25.863000  -0.004553   0.011832  18.104100  -0.001622   0.001367  28.555400   3.713270   6.784260  41.463600  -0.003880   0.005624  27.614700   0.004533   0.003633  28.275800   3.189860   5.906360  35.504500  -0.001764   0.005320  23.645900   0.000944   0.005119  36.475200  -0.120080  -0.162367  54.713100   0.001636   0.001468  36.438800   0.002837   0.004933   2.366870  10.864300   4.582350   0.951297   0.257270   6.776850  -1.407810  -3.688010   1.907300   0.000000   0.000000   0.000000   1.249290   9.459980  -0.835518  -0.220625   0.743125  -6.940040  -0.307789  -2.660610  -0.846132  -0.000000   0.000000  -0.000000
